<mxfile host="Electron" modified="2024-03-01T11:37:58.197Z" agent="Mozilla/5.0 (Macintosh; Intel Mac OS X 10_15_7) AppleWebKit/537.36 (KHTML, like Gecko) draw.io/22.1.21 Chrome/120.0.6099.109 Electron/28.1.0 Safari/537.36" etag="4yfhgGSgg5mrtxT4OFy1" version="22.1.21" type="device">
  <diagram name="Страница — 1" id="arbZCRBQyAPnY9Jx50A5">
    <mxGraphModel dx="2051" dy="747" grid="1" gridSize="10" guides="1" tooltips="1" connect="1" arrows="1" fold="1" page="1" pageScale="1" pageWidth="827" pageHeight="1169" math="0" shadow="0">
      <root>
        <mxCell id="0" />
        <mxCell id="1" parent="0" />
        <mxCell id="zb14kLLzFshZ7ZRRvkaO-1" value="Монолит ЛМА-1" style="swimlane;childLayout=stackLayout;horizontal=1;startSize=50;horizontalStack=0;rounded=1;fontSize=14;fontStyle=0;strokeWidth=2;resizeParent=0;resizeLast=1;shadow=0;dashed=0;align=center;arcSize=4;whiteSpace=wrap;html=1;" parent="1" vertex="1">
          <mxGeometry y="160" width="160" height="110" as="geometry" />
        </mxCell>
        <mxCell id="zb14kLLzFshZ7ZRRvkaO-2" value="+Идентификатор&lt;br&gt;+Состояние&lt;br&gt;+Время отправки сигнала" style="align=left;strokeColor=none;fillColor=none;spacingLeft=4;fontSize=12;verticalAlign=top;resizable=0;rotatable=0;part=1;html=1;" parent="zb14kLLzFshZ7ZRRvkaO-1" vertex="1">
          <mxGeometry y="50" width="160" height="60" as="geometry" />
        </mxCell>
        <mxCell id="zb14kLLzFshZ7ZRRvkaO-3" value="Сигнал" style="swimlane;childLayout=stackLayout;horizontal=1;startSize=50;horizontalStack=0;rounded=1;fontSize=14;fontStyle=0;strokeWidth=2;resizeParent=0;resizeLast=1;shadow=0;dashed=0;align=center;arcSize=4;whiteSpace=wrap;html=1;" parent="1" vertex="1">
          <mxGeometry x="490" y="160" width="140" height="100" as="geometry" />
        </mxCell>
        <mxCell id="zb14kLLzFshZ7ZRRvkaO-4" value="+Идентификатор&lt;br&gt;+Направление&lt;br&gt;+Время отправки" style="align=left;strokeColor=none;fillColor=none;spacingLeft=4;fontSize=12;verticalAlign=top;resizable=0;rotatable=0;part=1;html=1;" parent="zb14kLLzFshZ7ZRRvkaO-3" vertex="1">
          <mxGeometry y="50" width="140" height="50" as="geometry" />
        </mxCell>
        <mxCell id="zb14kLLzFshZ7ZRRvkaO-5" value="Звезды" style="swimlane;childLayout=stackLayout;horizontal=1;startSize=50;horizontalStack=0;rounded=1;fontSize=14;fontStyle=0;strokeWidth=2;resizeParent=0;resizeLast=1;shadow=0;dashed=0;align=center;arcSize=4;whiteSpace=wrap;html=1;" parent="1" vertex="1">
          <mxGeometry x="950" y="510" width="190" height="120" as="geometry" />
        </mxCell>
        <mxCell id="zb14kLLzFshZ7ZRRvkaO-6" value="+Идентификатор&lt;br&gt;+Местоположение&lt;br&gt;+Время достижения сигнала" style="align=left;strokeColor=none;fillColor=none;spacingLeft=4;fontSize=12;verticalAlign=top;resizable=0;rotatable=0;part=1;html=1;" parent="zb14kLLzFshZ7ZRRvkaO-5" vertex="1">
          <mxGeometry y="50" width="190" height="70" as="geometry" />
        </mxCell>
        <mxCell id="zb14kLLzFshZ7ZRRvkaO-8" value="Ретрансляционное устройство" style="swimlane;childLayout=stackLayout;horizontal=1;startSize=50;horizontalStack=0;rounded=1;fontSize=14;fontStyle=0;strokeWidth=2;resizeParent=0;resizeLast=1;shadow=0;dashed=0;align=center;arcSize=4;whiteSpace=wrap;html=1;" parent="1" vertex="1">
          <mxGeometry x="480" y="510" width="160" height="120" as="geometry" />
        </mxCell>
        <mxCell id="zb14kLLzFshZ7ZRRvkaO-9" value="+Идентификатор&lt;br&gt;+Местоположение&lt;br&gt;+Время передачи сигнала" style="align=left;strokeColor=none;fillColor=none;spacingLeft=4;fontSize=12;verticalAlign=top;resizable=0;rotatable=0;part=1;html=1;" parent="zb14kLLzFshZ7ZRRvkaO-8" vertex="1">
          <mxGeometry y="50" width="160" height="70" as="geometry" />
        </mxCell>
        <mxCell id="zb14kLLzFshZ7ZRRvkaO-10" value="Человечество" style="swimlane;childLayout=stackLayout;horizontal=1;startSize=50;horizontalStack=0;rounded=1;fontSize=14;fontStyle=0;strokeWidth=2;resizeParent=0;resizeLast=1;shadow=0;dashed=0;align=center;arcSize=4;whiteSpace=wrap;html=1;" parent="1" vertex="1">
          <mxGeometry x="477.5" y="850" width="160" height="120" as="geometry" />
        </mxCell>
        <mxCell id="zb14kLLzFshZ7ZRRvkaO-11" value="+Время приема сигнала&lt;br&gt;+Время ожидания отклика" style="align=left;strokeColor=none;fillColor=none;spacingLeft=4;fontSize=12;verticalAlign=top;resizable=0;rotatable=0;part=1;html=1;" parent="zb14kLLzFshZ7ZRRvkaO-10" vertex="1">
          <mxGeometry y="50" width="160" height="70" as="geometry" />
        </mxCell>
        <mxCell id="zb14kLLzFshZ7ZRRvkaO-13" value="Передышка" style="swimlane;childLayout=stackLayout;horizontal=1;startSize=50;horizontalStack=0;rounded=1;fontSize=14;fontStyle=0;strokeWidth=2;resizeParent=0;resizeLast=1;shadow=0;dashed=0;align=center;arcSize=4;whiteSpace=wrap;html=1;" parent="1" vertex="1">
          <mxGeometry x="942.5" y="850" width="205" height="120" as="geometry" />
        </mxCell>
        <mxCell id="zb14kLLzFshZ7ZRRvkaO-14" value="+Идентификатор&lt;br&gt;+Продолжительность&lt;br&gt;+Причина" style="align=left;strokeColor=none;fillColor=none;spacingLeft=4;fontSize=12;verticalAlign=top;resizable=0;rotatable=0;part=1;html=1;" parent="zb14kLLzFshZ7ZRRvkaO-13" vertex="1">
          <mxGeometry y="50" width="205" height="70" as="geometry" />
        </mxCell>
        <mxCell id="OSwA-PMSAM5qy-8DvE4i-1" value="Отправка сигнала" style="shape=rhombus;perimeter=rhombusPerimeter;whiteSpace=wrap;html=1;align=center;" parent="1" vertex="1">
          <mxGeometry x="240" y="175" width="150" height="70" as="geometry" />
        </mxCell>
        <mxCell id="OSwA-PMSAM5qy-8DvE4i-4" value="" style="endArrow=none;html=1;rounded=0;entryX=1;entryY=0;entryDx=0;entryDy=0;exitX=0;exitY=0.5;exitDx=0;exitDy=0;" parent="1" source="OSwA-PMSAM5qy-8DvE4i-1" target="zb14kLLzFshZ7ZRRvkaO-2" edge="1">
          <mxGeometry width="50" height="50" relative="1" as="geometry">
            <mxPoint x="530" y="445" as="sourcePoint" />
            <mxPoint x="580" y="395" as="targetPoint" />
          </mxGeometry>
        </mxCell>
        <mxCell id="OSwA-PMSAM5qy-8DvE4i-5" value="" style="endArrow=none;html=1;rounded=0;entryX=1;entryY=0.5;entryDx=0;entryDy=0;exitX=0;exitY=0;exitDx=0;exitDy=0;" parent="1" source="zb14kLLzFshZ7ZRRvkaO-4" target="OSwA-PMSAM5qy-8DvE4i-1" edge="1">
          <mxGeometry width="50" height="50" relative="1" as="geometry">
            <mxPoint x="530" y="445" as="sourcePoint" />
            <mxPoint x="430" y="255" as="targetPoint" />
          </mxGeometry>
        </mxCell>
        <mxCell id="OSwA-PMSAM5qy-8DvE4i-26" value="Увеличение мощности" style="shape=rhombus;perimeter=rhombusPerimeter;whiteSpace=wrap;html=1;align=center;" parent="1" vertex="1">
          <mxGeometry x="477.5" y="320" width="165" height="90" as="geometry" />
        </mxCell>
        <mxCell id="OSwA-PMSAM5qy-8DvE4i-29" value="" style="endArrow=none;html=1;rounded=0;entryX=0.5;entryY=1;entryDx=0;entryDy=0;exitX=0.5;exitY=0;exitDx=0;exitDy=0;" parent="1" source="zb14kLLzFshZ7ZRRvkaO-8" target="OSwA-PMSAM5qy-8DvE4i-26" edge="1">
          <mxGeometry width="50" height="50" relative="1" as="geometry">
            <mxPoint x="570" y="520" as="sourcePoint" />
            <mxPoint x="940" y="620" as="targetPoint" />
          </mxGeometry>
        </mxCell>
        <mxCell id="OSwA-PMSAM5qy-8DvE4i-30" value="Передача сигнала" style="shape=rhombus;perimeter=rhombusPerimeter;whiteSpace=wrap;html=1;align=center;" parent="1" vertex="1">
          <mxGeometry x="958.5" y="170" width="173" height="80" as="geometry" />
        </mxCell>
        <mxCell id="OSwA-PMSAM5qy-8DvE4i-33" value="1" style="text;html=1;strokeColor=none;fillColor=none;align=center;verticalAlign=middle;whiteSpace=wrap;rounded=0;" parent="1" vertex="1">
          <mxGeometry x="160" y="175" width="60" height="30" as="geometry" />
        </mxCell>
        <mxCell id="OSwA-PMSAM5qy-8DvE4i-34" value="M" style="text;html=1;strokeColor=none;fillColor=none;align=center;verticalAlign=middle;whiteSpace=wrap;rounded=0;" parent="1" vertex="1">
          <mxGeometry x="430" y="175" width="60" height="30" as="geometry" />
        </mxCell>
        <mxCell id="OSwA-PMSAM5qy-8DvE4i-35" value="" style="endArrow=none;html=1;rounded=0;entryX=0.5;entryY=0;entryDx=0;entryDy=0;exitX=0.5;exitY=1;exitDx=0;exitDy=0;" parent="1" source="zb14kLLzFshZ7ZRRvkaO-4" target="OSwA-PMSAM5qy-8DvE4i-26" edge="1">
          <mxGeometry width="50" height="50" relative="1" as="geometry">
            <mxPoint x="410" y="460" as="sourcePoint" />
            <mxPoint x="460" y="410" as="targetPoint" />
          </mxGeometry>
        </mxCell>
        <mxCell id="OSwA-PMSAM5qy-8DvE4i-38" value="" style="endArrow=none;html=1;rounded=0;entryX=1;entryY=0;entryDx=0;entryDy=0;exitX=0;exitY=0.5;exitDx=0;exitDy=0;" parent="1" source="OSwA-PMSAM5qy-8DvE4i-30" target="zb14kLLzFshZ7ZRRvkaO-4" edge="1">
          <mxGeometry width="50" height="50" relative="1" as="geometry">
            <mxPoint x="560" y="450" as="sourcePoint" />
            <mxPoint x="610" y="400" as="targetPoint" />
          </mxGeometry>
        </mxCell>
        <mxCell id="OSwA-PMSAM5qy-8DvE4i-39" value="Передача сигнала" style="shape=rhombus;perimeter=rhombusPerimeter;whiteSpace=wrap;html=1;align=center;" parent="1" vertex="1">
          <mxGeometry x="710" y="520" width="160" height="80" as="geometry" />
        </mxCell>
        <mxCell id="OSwA-PMSAM5qy-8DvE4i-40" value="" style="endArrow=none;html=1;rounded=0;entryX=0;entryY=0.5;entryDx=0;entryDy=0;exitX=1;exitY=0;exitDx=0;exitDy=0;" parent="1" source="zb14kLLzFshZ7ZRRvkaO-9" target="OSwA-PMSAM5qy-8DvE4i-39" edge="1">
          <mxGeometry width="50" height="50" relative="1" as="geometry">
            <mxPoint x="560" y="560" as="sourcePoint" />
            <mxPoint x="610" y="510" as="targetPoint" />
          </mxGeometry>
        </mxCell>
        <mxCell id="OSwA-PMSAM5qy-8DvE4i-41" value="" style="endArrow=none;html=1;rounded=0;entryX=0;entryY=0;entryDx=0;entryDy=0;exitX=1;exitY=0.5;exitDx=0;exitDy=0;" parent="1" source="OSwA-PMSAM5qy-8DvE4i-39" target="zb14kLLzFshZ7ZRRvkaO-6" edge="1">
          <mxGeometry width="50" height="50" relative="1" as="geometry">
            <mxPoint x="560" y="560" as="sourcePoint" />
            <mxPoint x="610" y="510" as="targetPoint" />
          </mxGeometry>
        </mxCell>
        <mxCell id="OSwA-PMSAM5qy-8DvE4i-42" value="" style="endArrow=none;html=1;rounded=0;entryX=0.5;entryY=1;entryDx=0;entryDy=0;exitX=0.5;exitY=0;exitDx=0;exitDy=0;" parent="1" source="zb14kLLzFshZ7ZRRvkaO-5" target="OSwA-PMSAM5qy-8DvE4i-30" edge="1">
          <mxGeometry width="50" height="50" relative="1" as="geometry">
            <mxPoint x="740" y="560" as="sourcePoint" />
            <mxPoint x="790" y="510" as="targetPoint" />
          </mxGeometry>
        </mxCell>
        <mxCell id="OSwA-PMSAM5qy-8DvE4i-43" value="Передача сигнала" style="shape=rhombus;perimeter=rhombusPerimeter;whiteSpace=wrap;html=1;align=center;" parent="1" vertex="1">
          <mxGeometry x="977.5" y="690" width="135" height="70" as="geometry" />
        </mxCell>
        <mxCell id="OSwA-PMSAM5qy-8DvE4i-44" value="" style="endArrow=none;html=1;rounded=0;entryX=0.5;entryY=1;entryDx=0;entryDy=0;exitX=0.5;exitY=0;exitDx=0;exitDy=0;" parent="1" source="OSwA-PMSAM5qy-8DvE4i-43" target="zb14kLLzFshZ7ZRRvkaO-6" edge="1">
          <mxGeometry width="50" height="50" relative="1" as="geometry">
            <mxPoint x="1040" y="820" as="sourcePoint" />
            <mxPoint x="1090" y="770" as="targetPoint" />
          </mxGeometry>
        </mxCell>
        <mxCell id="OSwA-PMSAM5qy-8DvE4i-45" value="" style="endArrow=none;html=1;rounded=0;entryX=0.5;entryY=1;entryDx=0;entryDy=0;exitX=0.5;exitY=0;exitDx=0;exitDy=0;" parent="1" source="zb14kLLzFshZ7ZRRvkaO-13" target="OSwA-PMSAM5qy-8DvE4i-43" edge="1">
          <mxGeometry width="50" height="50" relative="1" as="geometry">
            <mxPoint x="1040" y="820" as="sourcePoint" />
            <mxPoint x="1090" y="770" as="targetPoint" />
          </mxGeometry>
        </mxCell>
        <mxCell id="OSwA-PMSAM5qy-8DvE4i-47" value="Получение сигнала" style="shape=rhombus;perimeter=rhombusPerimeter;whiteSpace=wrap;html=1;align=center;" parent="1" vertex="1">
          <mxGeometry x="716.5" y="860" width="147" height="80" as="geometry" />
        </mxCell>
        <mxCell id="OSwA-PMSAM5qy-8DvE4i-48" value="" style="endArrow=none;html=1;rounded=0;entryX=0;entryY=0;entryDx=0;entryDy=0;exitX=1;exitY=0.5;exitDx=0;exitDy=0;" parent="1" source="OSwA-PMSAM5qy-8DvE4i-47" target="zb14kLLzFshZ7ZRRvkaO-14" edge="1">
          <mxGeometry width="50" height="50" relative="1" as="geometry">
            <mxPoint x="640" y="830" as="sourcePoint" />
            <mxPoint x="690" y="780" as="targetPoint" />
          </mxGeometry>
        </mxCell>
        <mxCell id="OSwA-PMSAM5qy-8DvE4i-49" value="" style="endArrow=none;html=1;rounded=0;entryX=0;entryY=0.5;entryDx=0;entryDy=0;exitX=1;exitY=0;exitDx=0;exitDy=0;" parent="1" source="zb14kLLzFshZ7ZRRvkaO-11" target="OSwA-PMSAM5qy-8DvE4i-47" edge="1">
          <mxGeometry width="50" height="50" relative="1" as="geometry">
            <mxPoint x="500" y="910" as="sourcePoint" />
            <mxPoint x="490" y="780" as="targetPoint" />
          </mxGeometry>
        </mxCell>
        <mxCell id="OSwA-PMSAM5qy-8DvE4i-50" value="1" style="text;html=1;strokeColor=none;fillColor=none;align=center;verticalAlign=middle;whiteSpace=wrap;rounded=0;" parent="1" vertex="1">
          <mxGeometry x="560" y="260" width="60" height="30" as="geometry" />
        </mxCell>
        <mxCell id="OSwA-PMSAM5qy-8DvE4i-51" value="0-1" style="text;html=1;strokeColor=none;fillColor=none;align=center;verticalAlign=middle;whiteSpace=wrap;rounded=0;" parent="1" vertex="1">
          <mxGeometry x="560" y="480" width="60" height="30" as="geometry" />
        </mxCell>
        <mxCell id="OSwA-PMSAM5qy-8DvE4i-52" value="0-1" style="text;html=1;strokeColor=none;fillColor=none;align=center;verticalAlign=middle;whiteSpace=wrap;rounded=0;" parent="1" vertex="1">
          <mxGeometry x="640" y="530" width="60" height="30" as="geometry" />
        </mxCell>
        <mxCell id="OSwA-PMSAM5qy-8DvE4i-53" value="M" style="text;html=1;strokeColor=none;fillColor=none;align=center;verticalAlign=middle;whiteSpace=wrap;rounded=0;" parent="1" vertex="1">
          <mxGeometry x="890" y="530" width="60" height="30" as="geometry" />
        </mxCell>
        <mxCell id="OSwA-PMSAM5qy-8DvE4i-54" value="M" style="text;html=1;strokeColor=none;fillColor=none;align=center;verticalAlign=middle;whiteSpace=wrap;rounded=0;" parent="1" vertex="1">
          <mxGeometry x="630" y="175" width="60" height="30" as="geometry" />
        </mxCell>
        <mxCell id="OSwA-PMSAM5qy-8DvE4i-55" value="M" style="text;html=1;strokeColor=none;fillColor=none;align=center;verticalAlign=middle;whiteSpace=wrap;rounded=0;" parent="1" vertex="1">
          <mxGeometry x="990" y="470" width="60" height="30" as="geometry" />
        </mxCell>
        <mxCell id="OSwA-PMSAM5qy-8DvE4i-56" value="M" style="text;html=1;strokeColor=none;fillColor=none;align=center;verticalAlign=middle;whiteSpace=wrap;rounded=0;" parent="1" vertex="1">
          <mxGeometry x="1050" y="630" width="60" height="30" as="geometry" />
        </mxCell>
        <mxCell id="OSwA-PMSAM5qy-8DvE4i-57" value="1" style="text;html=1;strokeColor=none;fillColor=none;align=center;verticalAlign=middle;whiteSpace=wrap;rounded=0;" parent="1" vertex="1">
          <mxGeometry x="1052.5" y="810" width="60" height="30" as="geometry" />
        </mxCell>
        <mxCell id="OSwA-PMSAM5qy-8DvE4i-58" value="1" style="text;html=1;strokeColor=none;fillColor=none;align=center;verticalAlign=middle;whiteSpace=wrap;rounded=0;" parent="1" vertex="1">
          <mxGeometry x="882.5" y="860" width="60" height="30" as="geometry" />
        </mxCell>
        <mxCell id="OSwA-PMSAM5qy-8DvE4i-59" value="1" style="text;html=1;strokeColor=none;fillColor=none;align=center;verticalAlign=middle;whiteSpace=wrap;rounded=0;" parent="1" vertex="1">
          <mxGeometry x="640" y="860" width="60" height="30" as="geometry" />
        </mxCell>
      </root>
    </mxGraphModel>
  </diagram>
</mxfile>
